PathFileType	4	(X/Y/Z)	/Users/visionmauri/1_6_1_f_Sports2D/1_6_1_f_Sports2D_px_person00.trc
DataRate	CameraRate	NumFrames	NumMarkers	Units	OrigDataRate	OrigDataStartFrame	OrigNumFrames
30.0	30.0	9	22	m	30.0	279	447
Frame#	Time	Hip			RHip			RKnee			RAnkle			RBigToe			RSmallToe			RHeel			LHip			LKnee			LAnkle			LBigToe			LSmallToe			LHeel			Neck			Head			Nose			RShoulder			RElbow			RWrist			LShoulder			LElbow			LWrist			
		X1	Y1	Z1	X2	Y2	Z2	X3	Y3	Z3	X4	Y4	Z4	X5	Y5	Z5	X6	Y6	Z6	X7	Y7	Z7	X8	Y8	Z8	X9	Y9	Z9	X10	Y10	Z10	X11	Y11	Z11	X12	Y12	Z12	X13	Y13	Z13	X14	Y14	Z14	X15	Y15	Z15	X16	Y16	Z16	X17	Y17	Z17	X18	Y18	Z18	X19	Y19	Z19	X20	Y20	Z20	X21	Y21	Z21	X22	Y22	Z22
279	9.320852017937218	529.8964655428503	825.2236436161629	0.0	479.4697515238422	829.6457472522646	0.0	491.67444368496	1017.0333282575396	0.0	503.7543646704509	1213.607217712545	0.0	518.1935251636166	1281.5293890645285	0.0	488.4127515640907	1276.9182669081467	0.0	508.1594434892401	1242.3156870039886	0.0	580.0070525454919	827.1406406834683	0.0	577.8870242153635	990.5048941044912	0.0	563.3477400082174	1162.1942499702698	0.0	562.6907394338971	1236.3725231431654	0.0	587.0009858566652	1228.1369575999538	0.0	563.0015456220125	1202.7050334760881	0.0	533.2017812364069	549.5087266434456	0.0	538.5196692926793	419.12033770025636	0.0	533.7167673385434	509.60464848011407	0.0	439.50970040272074	581.825736807537	0.0	409.57793872795276	691.1319263701293	0.0	389.90519037336935	797.3574539379949	0.0	628.0768394792673	578.093080319243	0.0	660.9127438998938	709.2427600311244	0.0	656.219007704738	766.8895509459836	0.0
280	9.354260089686099	528.2887883202993	824.5020421852796	0.0	478.411656297693	828.0078075768515	0.0	490.0573496332558	1016.2846325412686	0.0	503.0418042772826	1212.4994319437017	0.0	517.4181611399526	1280.4813191726391	0.0	487.85401754423356	1276.04203049414	0.0	506.5512758272673	1241.0917966183285	0.0	579.3209152719646	825.1881436563972	0.0	577.6927526864836	988.6768292203342	0.0	563.2881597251042	1160.829289010926	0.0	563.064570969257	1236.393788331268	0.0	586.6814095853739	1226.0084424790452	0.0	562.9250865373419	1203.7271601905245	0.0	530.9916723743416	548.8851540065366	0.0	537.9978198379465	417.55701027187916	0.0	533.1876717270035	508.0349735961081	0.0	436.87957344776055	580.7324506749776	0.0	406.5982244585797	691.4936405504354	0.0	388.9897986099433	796.9738765677711	0.0	626.0740276276772	575.9833791198523	0.0	658.568129388408	708.2597812789651	0.0	654.780182807209	760.2279748870942	0.0
281	9.387668161434977	526.3266308423985	822.3293692349639	0.0	476.67312183759293	826.7508154097297	0.0	488.57650488049404	1015.7052670154015	0.0	502.97781348039643	1211.2993526697692	0.0	516.655980791607	1279.4401542612634	0.0	487.618543777018	1274.552975674192	0.0	505.80073188920574	1239.3059195881406	0.0	578.4500906482577	823.3593133768488	0.0	577.2952969294885	985.9627067360605	0.0	564.4922261077736	1161.650753196825	0.0	563.0772287655692	1237.0980031708677	0.0	586.1966080380611	1225.4623832746981	0.0	562.5706755699958	1203.7291618131387	0.0	529.0039411465962	547.2231719117092	0.0	536.9580194650753	416.5934786872509	0.0	532.4109710789255	507.3005925707997	0.0	434.97568483088276	579.396511037085	0.0	403.5636994177355	691.6485402698746	0.0	387.27374987538076	796.7226428229785	0.0	624.1046079366072	575.1234482177993	0.0	656.2869851983943	707.712910362117	0.0	652.6112156241801	755.8472746870993	0.0
282	9.421076233183856	524.2721919763006	819.8406145934769	0.0	474.4744829310035	825.4071115734868	0.0	487.45938387455993	1014.8280950840234	0.0	503.27845619526335	1210.811475929184	0.0	516.4736422502918	1278.6089676818485	0.0	487.60105193496196	1273.780183210185	0.0	506.32622754371744	1238.024185520827	0.0	576.7461457646292	820.8797227548026	0.0	576.9364730950684	981.5116158486384	0.0	566.3774640006401	1160.9262131021326	0.0	562.7514453268717	1235.0800095994625	0.0	586.1459368890048	1224.6987237792298	0.0	562.812009430681	1200.826112063602	0.0	526.8984641036624	545.5939935579954	0.0	535.8118785083957	415.9767972884708	0.0	532.4446098169789	507.59528906531636	0.0	433.0883833366556	578.1160802484833	0.0	400.6722014149948	691.7738895912428	0.0	384.87293356085553	797.9691407078267	0.0	621.7153925292788	575.1815605205181	0.0	653.4949609788363	707.0108909147565	0.0	649.5208669173636	759.9661808496265	0.0
283	9.454484304932734	522.5806747862678	819.1918563718308	0.0	472.9865217869979	824.7833055275458	0.0	486.29072798818237	1014.6016765610784	0.0	503.33762092415907	1211.5302427393751	0.0	516.2846894972402	1278.3651936096917	0.0	487.3024933382135	1275.1636566590735	0.0	507.2722685091772	1238.0659018445353	0.0	574.5044570901584	818.8571010631146	0.0	576.862173554623	977.4598332031782	0.0	567.936337985617	1158.062960301251	0.0	562.3532335904422	1230.5393913981932	0.0	586.2727265994782	1222.6557300636484	0.0	563.5429422048064	1195.695433778221	0.0	524.5706050692771	545.1275230083313	0.0	535.4534677443173	415.55666913617074	0.0	533.4187342899342	508.3530833917063	0.0	430.1240046843476	578.0287755556654	0.0	397.64131320488445	692.145555944247	0.0	382.52025407875755	800.9006123576613	0.0	618.7277877231719	575.4087952318007	0.0	649.8376062101597	705.9066969375597	0.0	645.5624466109701	775.9215153440919	0.0
284	9.487892376681614	521.6811616573052	819.2252116363712	0.0	472.64179160631187	825.0192356668441	0.0	484.9616865188086	1016.5276518724173	0.0	502.83895477589476	1213.1839835413944	0.0	515.5698183358187	1278.7404414848277	0.0	486.4986285790198	1277.6051159387766	0.0	507.87514542683226	1239.0921378919845	0.0	572.9848697187803	817.8131901006477	0.0	577.3705988161478	972.6006171921715	0.0	569.6495881620366	1155.8107147347596	0.0	562.3350039289942	1222.754745632124	0.0	586.2014505914304	1218.2368233239995	0.0	564.7936435982921	1191.8419405696466	0.0	522.3988028598251	545.6041940302098	0.0	535.6225661946854	415.82249640983633	0.0	534.1179315807087	509.18320522270363	0.0	426.68173226756556	578.5331131501832	0.0	394.17962109612233	693.0753403872554	0.0	380.85631440859333	803.7580784203778	0.0	615.7180971830593	574.8869760628595	0.0	645.6560350442406	704.3054458189768	0.0	642.0455967989512	791.4871101484342	0.0
285	9.521300448430493	521.2978672281859	818.3774391073329	0.0	472.4285283470653	825.641158662729	0.0	484.037269985445	1020.0880083955726	0.0	501.9250215239975	1214.9323405922876	0.0	514.8073486815947	1279.2205474562497	0.0	485.7339033129873	1278.5973378208344	0.0	507.7858532174521	1240.2160558934056	0.0	572.3329380146448	817.2157802318018	0.0	578.4394861045297	966.5370355981971	0.0	571.7400728136543	1155.4180995059598	0.0	563.0718535214979	1212.9767373198272	0.0	586.2432849455137	1212.2476815493776	0.0	566.5100282265452	1190.340971148316	0.0	520.5389065602204	546.1766092186797	0.0	534.9549925543068	416.95371031830143	0.0	533.2535854301451	510.0146105281577	0.0	424.172305944037	578.0121538207297	0.0	390.5322091311652	694.8667600130792	0.0	379.77803973661537	805.7850055855743	0.0	613.1969625905742	573.8097599395156	0.0	641.8360966120625	703.2298920106342	0.0	639.6156607451096	797.4731632955479	0.0
286	9.554708520179371	520.5392466524236	817.7714485110241	0.0	471.2910138020897	827.2742542221932	0.0	483.60135020727523	1022.7350067171154	0.0	501.10072741194875	1215.9404226795898	0.0	514.6266535732218	1279.6384840215333	0.0	485.458547871287	1277.9208278544575	0.0	507.02089313848126	1241.0446912306422	0.0	571.1485028284911	817.0315851717531	0.0	579.505352907615	963.4566009644678	0.0	573.1989465632249	1156.2800614665364	0.0	564.7393225596098	1210.4901873689653	0.0	587.6563960481029	1210.8630343395998	0.0	567.8526442054839	1188.9511328727488	0.0	518.6774395992315	546.4830320294122	0.0	532.940794205598	417.98839476100096	0.0	531.1539190878098	510.8051161467862	0.0	422.745276815875	576.6355130871025	0.0	387.47218149748215	697.0799074597476	0.0	378.84282634848194	807.9264654210659	0.0	610.7919450607754	573.1664303583885	0.0	638.955448049942	703.4639784273451	0.0	637.1791572184088	799.4511761055045	0.0
287	9.58811659192825	518.9825088797116	818.1958055788483	0.0	469.4041423613612	830.1027935208535	0.0	483.1973755230944	1023.2511881408102	0.0	500.77251558953463	1216.010380257659	0.0	514.9829679516023	1280.4740311196854	0.0	485.5655388326679	1277.399277199164	0.0	506.2400843429078	1241.7129901699898	0.0	568.9064276881978	817.0858976142058	0.0	580.1127014005995	963.6315228925388	0.0	573.7516196187917	1157.3214196164872	0.0	566.8110312847037	1220.3562514303949	0.0	590.6972975952236	1217.8047023970364	0.0	568.5058063456123	1186.4568480823896	0.0	516.6591993573239	546.690419124694	0.0	530.6182211140948	418.1792456501536	0.0	529.0953685534655	511.61947104724726	0.0	421.4683758104545	575.7633876522461	0.0	385.6653236478454	698.5585340855714	0.0	377.98709933393917	810.079221593946	0.0	608.1961136901801	572.9976582536079	0.0	636.770906948379	703.4411440890442	0.0	634.0866152936628	804.6166013787075	0.0
